<svg width="25" height="25" viewBox="0 0 25 25" fill="none" xmlns="http://www.w3.org/2000/svg">
<path fill-rule="evenodd" clip-rule="evenodd" d="M14.4004 21.6724C13.8978 21.7564 13.3815 21.8002 12.8549 21.8002C12.3284 21.8002 11.8121 21.7564 11.3094 21.6724C10.9171 21.2241 10.5388 20.6085 10.201 19.8363C9.83479 18.9993 9.52829 18.0062 9.303 16.8986C10.4633 16.7232 11.7311 16.6252 13.0666 16.6252C14.2466 16.6252 15.373 16.7016 16.4186 16.8402C16.1923 17.9713 15.8815 18.9847 15.5089 19.8363C15.1711 20.6085 14.7928 21.2241 14.4004 21.6724ZM15.1457 23.0568C14.4074 23.2162 13.641 23.3002 12.8549 23.3002C12.0689 23.3002 11.3025 23.2162 10.5641 23.0568C5.6998 22.0062 2.05493 17.6788 2.05493 12.5002C2.05493 7.32156 5.6998 2.99424 10.5641 1.94364C11.3025 1.78417 12.0689 1.7002 12.8549 1.7002C13.641 1.7002 14.4074 1.78417 15.1457 1.94364C17.9269 2.54432 20.3095 4.21616 21.84 6.50583C22.1173 6.92057 22.3666 7.35559 22.5852 7.80817C23.2707 9.22709 23.6549 10.8188 23.6549 12.5002C23.6549 14.1816 23.2707 15.7733 22.5852 17.1922C22.3666 17.6448 22.1173 18.0798 21.84 18.4946C20.3095 20.7842 17.9269 22.4561 15.1457 23.0568ZM20.4764 17.8311C19.5082 19.2127 18.1739 20.3189 16.6144 21.009C16.7077 20.8244 16.7973 20.6337 16.8831 20.4376C17.3079 19.4666 17.6525 18.3335 17.8988 17.088C18.8619 17.2849 19.7303 17.5375 20.4764 17.8311ZM21.2423 16.5229C21.8272 15.3055 22.1549 13.9411 22.1549 12.5002C22.1549 11.0593 21.8272 9.69488 21.2423 8.47749C20.3371 8.85301 19.2882 9.16279 18.1378 9.39444C18.2634 10.3846 18.3299 11.4268 18.3299 12.5002C18.3299 13.5736 18.2634 14.6158 18.1378 15.6059C19.2882 15.8376 20.3371 16.1474 21.2423 16.5229ZM16.6571 15.3589C15.5209 15.2064 14.3129 15.1252 13.0666 15.1252C11.666 15.1252 10.3148 15.2277 9.06022 15.4183C8.9433 14.4965 8.87993 13.5174 8.87993 12.5002C8.87993 11.483 8.9433 10.5039 9.06022 9.58205C10.3148 9.77274 11.666 9.87519 13.0666 9.87519C14.3129 9.87519 15.5209 9.79403 16.6571 9.64151C16.7693 10.546 16.8299 11.5048 16.8299 12.5002C16.8299 13.4956 16.7693 14.4544 16.6571 15.3589ZM16.4186 8.16014C15.373 8.29875 14.2466 8.3752 13.0666 8.3752C11.7311 8.3752 10.4633 8.27724 9.303 8.10177C9.52829 6.99421 9.83479 6.00104 10.201 5.16406C10.5388 4.39184 10.9171 3.77631 11.3094 3.32803C11.8121 3.24395 12.3284 3.2002 12.8549 3.2002C13.3815 3.2002 13.8978 3.24395 14.4004 3.32803C14.7928 3.77631 15.1711 4.39184 15.5089 5.16406C15.8815 6.01572 16.1923 7.02909 16.4186 8.16014ZM17.8988 7.91241C18.8619 7.71544 19.7303 7.46293 20.4764 7.16933C19.5082 5.78772 18.1739 4.68146 16.6144 3.99138C16.7077 4.17602 16.7973 4.36672 16.8831 4.56283C17.3079 5.53377 17.6525 6.66692 17.8988 7.91241ZM9.09549 3.99138C7.58695 4.65887 6.28919 5.71577 5.32968 7.0346C6.04436 7.34274 6.88677 7.61099 7.82861 7.82489C8.07354 6.61382 8.41192 5.51098 8.82673 4.56283C8.91253 4.36672 9.00213 4.17602 9.09549 3.99138ZM7.58325 9.30717C6.44537 9.05401 5.41711 8.72267 4.54193 8.32627C3.91048 9.58145 3.55493 10.9993 3.55493 12.5002C3.55493 14.0011 3.91048 15.4189 4.54193 16.6741C5.41711 16.2777 6.44537 15.9464 7.58325 15.6932C7.45048 14.6771 7.37993 13.6052 7.37993 12.5002C7.37993 11.3952 7.45048 10.3233 7.58325 9.30717ZM7.82861 17.1755C6.88677 17.3894 6.04436 17.6576 5.32968 17.9658C6.2892 19.2846 7.58695 20.3415 9.09549 21.009C9.00213 20.8244 8.91253 20.6337 8.82673 20.4376C8.41192 19.4894 8.07354 18.3866 7.82861 17.1755Z" fill="#020100"/>
</svg>
