<svg width="24" height="25" viewBox="0 0 24 25" fill="none" xmlns="http://www.w3.org/2000/svg">
<path d="M4.39795 11.6775C4.66378 13.504 5.57833 15.1738 6.9743 16.3813C8.37026 17.5888 10.1543 18.2533 12.0001 18.2533M12.0001 18.2533C13.8458 18.2533 15.6298 17.5888 17.0258 16.3813C18.4218 15.1738 19.3363 13.504 19.6022 11.6775M12.0001 18.2533V22.1004M12.0011 2.90039C11.1282 2.90039 10.291 3.24717 9.67376 3.86443C9.05649 4.48169 8.70972 5.31888 8.70972 6.19182V10.5804C8.70972 11.4533 9.05649 12.2905 9.67376 12.9078C10.291 13.525 11.1282 13.8718 12.0011 13.8718C12.8741 13.8718 13.7113 13.525 14.3285 12.9078C14.9458 12.2905 15.2926 11.4533 15.2926 10.5804V6.19182C15.2926 5.31888 14.9458 4.48169 14.3285 3.86443C13.7113 3.24717 12.8741 2.90039 12.0011 2.90039Z" stroke="black" stroke-width="1.5" stroke-linecap="round" stroke-linejoin="round"/>
</svg>
