<svg width="21" height="21" viewBox="0 0 21 21" fill="none" xmlns="http://www.w3.org/2000/svg">
<g clip-path="url(#clip0_1642_6608)">
<path d="M10.4388 14H10.5613C11.6601 13.9988 12.7137 13.5621 13.4912 12.7855C14.2686 12.0089 14.7064 10.9557 14.7088 9.85688V6.00687C14.7076 4.90724 14.2703 3.85299 13.4927 3.07543C12.7151 2.29787 11.6609 1.86053 10.5613 1.85938H10.4388C9.33913 1.86053 8.28487 2.29787 7.50731 3.07543C6.72976 3.85299 6.29242 4.90724 6.29126 6.00687V9.87437C6.29819 10.9702 6.73807 12.0189 7.51501 12.7917C8.29194 13.5645 9.34291 13.9989 10.4388 14V14ZM7.16626 6.00687C7.16742 5.13931 7.51257 4.30761 8.12603 3.69415C8.73949 3.08068 9.57119 2.73553 10.4388 2.73438H10.5613C11.4288 2.73553 12.2605 3.08068 12.874 3.69415C13.4875 4.30761 13.8326 5.13931 13.8338 6.00687V9.87437C13.8268 10.7381 13.4791 11.5642 12.8663 12.173C12.2535 12.7817 11.4251 13.1239 10.5613 13.125H10.4388C9.57195 13.1238 8.74091 12.7793 8.12757 12.1668C7.51424 11.5543 7.16857 10.7237 7.16626 9.85688V6.00687Z" fill="white"/>
<path d="M10.9375 15.8553C14 15.6584 16.3844 13.4141 16.3844 10.6797C16.3844 10.5637 16.3383 10.4524 16.2562 10.3703C16.1742 10.2883 16.0629 10.2422 15.9469 10.2422C15.8308 10.2422 15.7195 10.2883 15.6375 10.3703C15.5554 10.4524 15.5094 10.5637 15.5094 10.6797C15.5094 13.0597 13.2606 15.0022 10.5 15.0022C7.73935 15.0022 5.4906 13.0597 5.4906 10.6797C5.4906 10.5637 5.44451 10.4524 5.36246 10.3703C5.28041 10.2883 5.16913 10.2422 5.0531 10.2422C4.93707 10.2422 4.82579 10.2883 4.74374 10.3703C4.66169 10.4524 4.6156 10.5637 4.6156 10.6797C4.6156 13.4141 7.02185 15.6584 10.0625 15.8553V18.1741C10.0604 18.2047 10.0604 18.2353 10.0625 18.2659H7.2406C7.12457 18.2659 7.01329 18.312 6.93124 18.3941C6.84919 18.4761 6.8031 18.5874 6.8031 18.7034C6.8031 18.8195 6.84919 18.9307 6.93124 19.0128C7.01329 19.0948 7.12457 19.1409 7.2406 19.1409H13.7594C13.8754 19.1409 13.9867 19.0948 14.0687 19.0128C14.1508 18.9307 14.1969 18.8195 14.1969 18.7034C14.1969 18.5874 14.1508 18.4761 14.0687 18.3941C13.9867 18.312 13.8754 18.2659 13.7594 18.2659H10.9375C10.9396 18.2353 10.9396 18.2047 10.9375 18.1741V15.8553Z" fill="white"/>
</g>
<defs>
<clipPath id="clip0_1642_6608">
<rect width="21" height="21" fill="white"/>
</clipPath>
</defs>
</svg>
